<?xml version="1.0" encoding="UTF-8" standalone="no"?>
<!DOCTYPE svg PUBLIC "-//W3C//DTD SVG 1.1//EN" "http://www.w3.org/Graphics/SVG/1.1/DTD/svg11.dtd">
<svg width="800px" height="200px" viewBox="0 0 800 200" xmlns="http://www.w3.org/2000/svg" version="1.1">
	<title>Sine wave</title>
	<!-- Created by Zorgit (zorgit@gmail.com) on 27 June 2008 Anno Domini -->
	<g stroke="lightgray" >
		<line x1="0.00" y1="33.33" x2="800.00" y2="33.33" stroke-width="3"  />
		<line x1="0.00" y1="166.67" x2="800.00" y2="166.67" stroke-width="3"  />
		<line x1="0.00" y1="100.00" x2="797.00" y2="100.00" stroke-width="3"  />
		<line x1="400.00" y1="3.00" x2="400.00" y2="200.00" stroke-width="3"  />
		<polygon fill="lightgray" stroke-width="1" points="
			785.00,95.00
			785.00,105.00
			800.00,100.00
		" />
		<polygon fill="lightgray" stroke-width="1" points="
			395.00,15.00
			405.00,15.00
			400.00,0.00
		" />
	</g>
	<polyline fill="none" stroke="red" stroke-width="5" points="
		0.0,81.372
		1.0,80.414
		2.0,79.461
		3.0,78.512
		4.0,77.567
		5.0,76.628
		6.0,75.694
		7.0,74.766
		8.0,73.843
		9.0,72.926
		10.0,72.016
		11.0,71.111
		12.0,70.213
		13.0,69.322
		14.0,68.438
		15.0,67.560
		16.0,66.691
		17.0,65.828
		18.0,64.973
		19.0,64.126
		20.0,63.288
		21.0,62.457
		22.0,61.635
		23.0,60.822
		24.0,60.017
		25.0,59.221
		26.0,58.435
		27.0,57.658
		28.0,56.890
		29.0,56.132
		30.0,55.384
		31.0,54.646
		32.0,53.918
		33.0,53.201
		34.0,52.494
		35.0,51.798
		36.0,51.112
		37.0,50.438
		38.0,49.775
		39.0,49.123
		40.0,48.482
		41.0,47.853
		42.0,47.236
		43.0,46.631
		44.0,46.038
		45.0,45.457
		46.0,44.888
		47.0,44.331
		48.0,43.787
		49.0,43.256
		50.0,42.738
		51.0,42.232
		52.0,41.739
		53.0,41.260
		54.0,40.794
		55.0,40.341
		56.0,39.901
		57.0,39.475
		58.0,39.063
		59.0,38.664
		60.0,38.279
		61.0,37.908
		62.0,37.551
		63.0,37.208
		64.0,36.879
		65.0,36.564
		66.0,36.264
		67.0,35.978
		68.0,35.706
		69.0,35.449
		70.0,35.206
		71.0,34.978
		72.0,34.765
		73.0,34.566
		74.0,34.382
		75.0,34.213
		76.0,34.058
		77.0,33.919
		78.0,33.794
		79.0,33.684
		80.0,33.589
		81.0,33.509
		82.0,33.444
		83.0,33.394
		84.0,33.359
		85.0,33.339
		86.0,33.334
		87.0,33.343
		88.0,33.368
		89.0,33.408
		90.0,33.463
		91.0,33.533
		92.0,33.618
		93.0,33.717
		94.0,33.832
		95.0,33.962
		96.0,34.106
		97.0,34.265
		98.0,34.439
		99.0,34.628
		100.0,34.831
		101.0,35.049
		102.0,35.282
		103.0,35.529
		104.0,35.791
		105.0,36.068
		106.0,36.358
		107.0,36.663
		108.0,36.982
		109.0,37.316
		110.0,37.663
		111.0,38.025
		112.0,38.400
		113.0,38.789
		114.0,39.193
		115.0,39.609
		116.0,40.040
		117.0,40.483
		118.0,40.941
		119.0,41.411
		120.0,41.895
		121.0,42.392
		122.0,42.901
		123.0,43.424
		124.0,43.959
		125.0,44.507
		126.0,45.068
		127.0,45.640
		128.0,46.225
		129.0,46.823
		130.0,47.432
		131.0,48.053
		132.0,48.685
		133.0,49.329
		134.0,49.985
		135.0,50.652
		136.0,51.329
		137.0,52.018
		138.0,52.718
		139.0,53.428
		140.0,54.149
		141.0,54.880
		142.0,55.621
		143.0,56.372
		144.0,57.133
		145.0,57.904
		146.0,58.684
		147.0,59.474
		148.0,60.272
		149.0,61.080
		150.0,61.896
		151.0,62.721
		152.0,63.554
		153.0,64.395
		154.0,65.245
		155.0,66.102
		156.0,66.967
		157.0,67.839
		158.0,68.719
		159.0,69.605
		160.0,70.499
		161.0,71.399
		162.0,72.305
		163.0,73.218
		164.0,74.137
		165.0,75.061
		166.0,75.991
		167.0,76.927
		168.0,77.868
		169.0,78.813
		170.0,79.764
		171.0,80.719
		172.0,81.678
		173.0,82.642
		174.0,83.609
		175.0,84.580
		176.0,85.555
		177.0,86.533
		178.0,87.514
		179.0,88.497
		180.0,89.484
		181.0,90.472
		182.0,91.463
		183.0,92.456
		184.0,93.450
		185.0,94.446
		186.0,95.443
		187.0,96.441
		188.0,97.440
		189.0,98.440
		190.0,99.440
		191.0,100.440
		192.0,101.439
		193.0,102.439
		194.0,103.438
		195.0,104.436
		196.0,105.433
		197.0,106.430
		198.0,107.424
		199.0,108.417
		200.0,109.408
		201.0,110.397
		202.0,111.383
		203.0,112.367
		204.0,113.349
		205.0,114.327
		206.0,115.302
		207.0,116.273
		208.0,117.241
		209.0,118.205
		210.0,119.165
		211.0,120.121
		212.0,121.072
		213.0,122.018
		214.0,122.960
		215.0,123.896
		216.0,124.827
		217.0,125.752
		218.0,126.671
		219.0,127.585
		220.0,128.492
		221.0,129.393
		222.0,130.287
		223.0,131.174
		224.0,132.055
		225.0,132.928
		226.0,133.794
		227.0,134.652
		228.0,135.502
		229.0,136.345
		230.0,137.179
		231.0,138.005
		232.0,138.822
		233.0,139.631
		234.0,140.430
		235.0,141.221
		236.0,142.002
		237.0,142.774
		238.0,143.536
		239.0,144.288
		240.0,145.031
		241.0,145.763
		242.0,146.485
		243.0,147.197
		244.0,147.898
		245.0,148.588
		246.0,149.267
		247.0,149.935
		248.0,150.592
		249.0,151.238
		250.0,151.872
		251.0,152.494
		252.0,153.104
		253.0,153.703
		254.0,154.289
		255.0,154.864
		256.0,155.426
		257.0,155.975
		258.0,156.512
		259.0,157.036
		260.0,157.547
		261.0,158.046
		262.0,158.531
		263.0,159.003
		264.0,159.462
		265.0,159.907
		266.0,160.339
		267.0,160.758
		268.0,161.163
		269.0,161.554
		270.0,161.931
		271.0,162.294
		272.0,162.643
		273.0,162.978
		274.0,163.299
		275.0,163.606
		276.0,163.898
		277.0,164.176
		278.0,164.440
		279.0,164.689
		280.0,164.923
		281.0,165.143
		282.0,165.348
		283.0,165.539
		284.0,165.715
		285.0,165.876
		286.0,166.022
		287.0,166.153
		288.0,166.270
		289.0,166.371
		290.0,166.458
		291.0,166.529
		292.0,166.586
		293.0,166.628
		294.0,166.654
		295.0,166.666
		296.0,166.663
		297.0,166.644
		298.0,166.611
		299.0,166.563
		300.0,166.500
		301.0,166.421
		302.0,166.328
		303.0,166.220
		304.0,166.097
		305.0,165.959
		306.0,165.807
		307.0,165.639
		308.0,165.457
		309.0,165.260
		310.0,165.048
		311.0,164.822
		312.0,164.581
		313.0,164.326
		314.0,164.056
		315.0,163.771
		316.0,163.473
		317.0,163.160
		318.0,162.833
		319.0,162.491
		320.0,162.136
		321.0,161.767
		322.0,161.383
		323.0,160.986
		324.0,160.576
		325.0,160.151
		326.0,159.713
		327.0,159.262
		328.0,158.797
		329.0,158.319
		330.0,157.828
		331.0,157.324
		332.0,156.807
		333.0,156.277
		334.0,155.735
		335.0,155.180
		336.0,154.613
		337.0,154.033
		338.0,153.441
		339.0,152.838
		340.0,152.222
		341.0,151.594
		342.0,150.955
		343.0,150.305
		344.0,149.643
		345.0,148.970
		346.0,148.286
		347.0,147.591
		348.0,146.885
		349.0,146.169
		350.0,145.443
		351.0,144.706
		352.0,143.959
		353.0,143.202
		354.0,142.436
		355.0,141.660
		356.0,140.874
		357.0,140.080
		358.0,139.276
		359.0,138.464
		360.0,137.643
		361.0,136.813
		362.0,135.975
		363.0,135.130
		364.0,134.276
		365.0,133.414
		366.0,132.545
		367.0,131.669
		368.0,130.785
		369.0,129.895
		370.0,128.998
		371.0,128.094
		372.0,127.184
		373.0,126.268
		374.0,125.346
		375.0,124.418
		376.0,123.485
		377.0,122.546
		378.0,121.603
		379.0,120.654
		380.0,119.701
		381.0,118.744
		382.0,117.782
		383.0,116.816
		384.0,115.847
		385.0,114.874
		386.0,113.897
		387.0,112.918
		388.0,111.935
		389.0,110.950
		390.0,109.963
		391.0,108.973
		392.0,107.981
		393.0,106.987
		394.0,105.992
		395.0,104.995
		396.0,103.998
		397.0,102.999
		398.0,102.000
		399.0,101.000
		400.0,100.000
		401.0,99.000
		402.0,98.000
		403.0,97.001
		404.0,96.002
		405.0,95.005
		406.0,94.008
		407.0,93.013
		408.0,92.019
		409.0,91.027
		410.0,90.037
		411.0,89.050
		412.0,88.065
		413.0,87.082
		414.0,86.103
		415.0,85.126
		416.0,84.153
		417.0,83.184
		418.0,82.218
		419.0,81.256
		420.0,80.299
		421.0,79.346
		422.0,78.397
		423.0,77.454
		424.0,76.515
		425.0,75.582
		426.0,74.654
		427.0,73.732
		428.0,72.816
		429.0,71.906
		430.0,71.002
		431.0,70.105
		432.0,69.215
		433.0,68.331
		434.0,67.455
		435.0,66.586
		436.0,65.724
		437.0,64.870
		438.0,64.025
		439.0,63.187
		440.0,62.357
		441.0,61.536
		442.0,60.724
		443.0,59.920
		444.0,59.126
		445.0,58.340
		446.0,57.564
		447.0,56.798
		448.0,56.041
		449.0,55.294
		450.0,54.557
		451.0,53.831
		452.0,53.115
		453.0,52.409
		454.0,51.714
		455.0,51.030
		456.0,50.357
		457.0,49.695
		458.0,49.045
		459.0,48.406
		460.0,47.778
		461.0,47.162
		462.0,46.559
		463.0,45.967
		464.0,45.387
		465.0,44.820
		466.0,44.265
		467.0,43.723
		468.0,43.193
		469.0,42.676
		470.0,42.172
		471.0,41.681
		472.0,41.203
		473.0,40.738
		474.0,40.287
		475.0,39.849
		476.0,39.424
		477.0,39.014
		478.0,38.617
		479.0,38.233
		480.0,37.864
		481.0,37.509
		482.0,37.167
		483.0,36.840
		484.0,36.527
		485.0,36.229
		486.0,35.944
		487.0,35.674
		488.0,35.419
		489.0,35.178
		490.0,34.952
		491.0,34.740
		492.0,34.543
		493.0,34.361
		494.0,34.193
		495.0,34.041
		496.0,33.903
		497.0,33.780
		498.0,33.672
		499.0,33.579
		500.0,33.500
		501.0,33.437
		502.0,33.389
		503.0,33.356
		504.0,33.337
		505.0,33.334
		506.0,33.346
		507.0,33.372
		508.0,33.414
		509.0,33.471
		510.0,33.542
		511.0,33.629
		512.0,33.730
		513.0,33.847
		514.0,33.978
		515.0,34.124
		516.0,34.285
		517.0,34.461
		518.0,34.652
		519.0,34.857
		520.0,35.077
		521.0,35.311
		522.0,35.560
		523.0,35.824
		524.0,36.102
		525.0,36.394
		526.0,36.701
		527.0,37.022
		528.0,37.357
		529.0,37.706
		530.0,38.069
		531.0,38.446
		532.0,38.837
		533.0,39.242
		534.0,39.661
		535.0,40.093
		536.0,40.538
		537.0,40.997
		538.0,41.469
		539.0,41.954
		540.0,42.453
		541.0,42.964
		542.0,43.488
		543.0,44.025
		544.0,44.574
		545.0,45.136
		546.0,45.711
		547.0,46.297
		548.0,46.896
		549.0,47.506
		550.0,48.128
		551.0,48.762
		552.0,49.408
		553.0,50.065
		554.0,50.733
		555.0,51.412
		556.0,52.102
		557.0,52.803
		558.0,53.515
		559.0,54.237
		560.0,54.969
		561.0,55.712
		562.0,56.464
		563.0,57.226
		564.0,57.998
		565.0,58.779
		566.0,59.570
		567.0,60.369
		568.0,61.178
		569.0,61.995
		570.0,62.821
		571.0,63.655
		572.0,64.498
		573.0,65.348
		574.0,66.206
		575.0,67.072
		576.0,67.945
		577.0,68.826
		578.0,69.713
		579.0,70.607
		580.0,71.508
		581.0,72.415
		582.0,73.329
		583.0,74.248
		584.0,75.173
		585.0,76.104
		586.0,77.040
		587.0,77.982
		588.0,78.928
		589.0,79.879
		590.0,80.835
		591.0,81.795
		592.0,82.759
		593.0,83.727
		594.0,84.698
		595.0,85.673
		596.0,86.651
		597.0,87.633
		598.0,88.617
		599.0,89.603
		600.0,90.592
		601.0,91.583
		602.0,92.576
		603.0,93.570
		604.0,94.567
		605.0,95.564
		606.0,96.562
		607.0,97.561
		608.0,98.561
		609.0,99.560
		610.0,100.560
		611.0,101.560
		612.0,102.560
		613.0,103.559
		614.0,104.557
		615.0,105.554
		616.0,106.550
		617.0,107.544
		618.0,108.537
		619.0,109.528
		620.0,110.516
		621.0,111.503
		622.0,112.486
		623.0,113.467
		624.0,114.445
		625.0,115.420
		626.0,116.391
		627.0,117.358
		628.0,118.322
		629.0,119.281
		630.0,120.236
		631.0,121.187
		632.0,122.132
		633.0,123.073
		634.0,124.009
		635.0,124.939
		636.0,125.863
		637.0,126.782
		638.0,127.695
		639.0,128.601
		640.0,129.501
		641.0,130.395
		642.0,131.281
		643.0,132.161
		644.0,133.033
		645.0,133.898
		646.0,134.755
		647.0,135.605
		648.0,136.446
		649.0,137.279
		650.0,138.104
		651.0,138.920
		652.0,139.728
		653.0,140.526
		654.0,141.316
		655.0,142.096
		656.0,142.867
		657.0,143.628
		658.0,144.379
		659.0,145.120
		660.0,145.851
		661.0,146.572
		662.0,147.282
		663.0,147.982
		664.0,148.671
		665.0,149.348
		666.0,150.015
		667.0,150.671
		668.0,151.315
		669.0,151.947
		670.0,152.568
		671.0,153.177
		672.0,153.775
		673.0,154.360
		674.0,154.932
		675.0,155.493
		676.0,156.041
		677.0,156.576
		678.0,157.099
		679.0,157.608
		680.0,158.105
		681.0,158.589
		682.0,159.059
		683.0,159.517
		684.0,159.960
		685.0,160.391
		686.0,160.807
		687.0,161.211
		688.0,161.600
		689.0,161.975
		690.0,162.337
		691.0,162.684
		692.0,163.018
		693.0,163.337
		694.0,163.642
		695.0,163.932
		696.0,164.209
		697.0,164.471
		698.0,164.718
		699.0,164.951
		700.0,165.169
		701.0,165.372
		702.0,165.561
		703.0,165.735
		704.0,165.894
		705.0,166.038
		706.0,166.168
		707.0,166.283
		708.0,166.382
		709.0,166.467
		710.0,166.537
		711.0,166.592
		712.0,166.632
		713.0,166.657
		714.0,166.666
		715.0,166.661
		716.0,166.641
		717.0,166.606
		718.0,166.556
		719.0,166.491
		720.0,166.411
		721.0,166.316
		722.0,166.206
		723.0,166.081
		724.0,165.942
		725.0,165.787
		726.0,165.618
		727.0,165.434
		728.0,165.235
		729.0,165.022
		730.0,164.794
		731.0,164.551
		732.0,164.294
		733.0,164.022
		734.0,163.736
		735.0,163.436
		736.0,163.121
		737.0,162.792
		738.0,162.449
		739.0,162.092
		740.0,161.721
		741.0,161.336
		742.0,160.937
		743.0,160.525
		744.0,160.099
		745.0,159.659
		746.0,159.206
		747.0,158.740
		748.0,158.261
		749.0,157.768
		750.0,157.262
		751.0,156.744
		752.0,156.213
		753.0,155.669
		754.0,155.112
		755.0,154.543
		756.0,153.962
		757.0,153.369
		758.0,152.764
		759.0,152.146
		760.0,151.518
		761.0,150.877
		762.0,150.225
		763.0,149.562
		764.0,148.888
		765.0,148.202
		766.0,147.506
		767.0,146.799
		768.0,146.082
		769.0,145.354
		770.0,144.616
		771.0,143.868
		772.0,143.110
		773.0,142.342
		774.0,141.565
		775.0,140.779
		776.0,139.983
		777.0,139.178
		778.0,138.365
		779.0,137.543
		780.0,136.712
		781.0,135.874
		782.0,135.027
		783.0,134.172
		784.0,133.309
		785.0,132.440
		786.0,131.562
		787.0,130.678
		788.0,129.787
		789.0,128.889
		790.0,127.984
		791.0,127.074
		792.0,126.157
		793.0,125.234
		794.0,124.306
		795.0,123.372
		796.0,122.433
		797.0,121.488
		798.0,120.539
		799.0,119.586
		800.0,118.628
	" />
	<text x="405.00" y="189.67" font-family="Verdana" font-size="24" fill="black">-1</text>
	<text x="405.00" y="56.33" font-family="Verdana" font-size="24" fill="black">1</text>
	<text x="165.56" y="120.00" font-family="Times New Roman" font-size="28" fill="black">-π</text>
	<text x="594.44" y="120.00" font-family="Times New Roman" font-size="28" fill="black">π</text>
	<text x="777.00" y="92.00" font-family="Verdana" font-size="24" fill="black">x</text>
	<text x="378.00" y="20.00" font-family="Verdana" font-size="24" fill="black">y</text>
</svg>