<?xml version="1.0" encoding="UTF-8"?>
<svg xmlns="http://www.w3.org/2000/svg" width="1200" height="800" viewBox="0 0 1200 800">
  <defs>
    <radialGradient id="pulse" cx="50%" cy="50%" r="60%">
      <stop offset="0%" stop-color="#ffb5e8" stop-opacity="0.8"/>
      <stop offset="100%" stop-color="#fffbf3" stop-opacity="0"/>
    </radialGradient>
    <pattern id="nodes" width="80" height="80" patternUnits="userSpaceOnUse">
      <circle cx="40" cy="40" r="6" fill="#070707"/>
      <line x1="40" y1="40" x2="80" y2="0" stroke="#070707" stroke-width="3"/>
      <line x1="40" y1="40" x2="0" y2="80" stroke="#070707" stroke-width="3"/>
    </pattern>
  </defs>
  <rect width="1200" height="800" fill="#fffbf3"/>
  <rect x="60" y="60" width="1080" height="680" fill="none" stroke="#070707" stroke-width="18"/>
  <rect x="120" y="120" width="960" height="560" fill="url(#nodes)" opacity="0.15"/>
  <ellipse cx="600" cy="400" rx="320" ry="240" fill="url(#pulse)"/>
  <path d="M400 330c0-120 120-200 220-200s200 80 200 200-80 240-200 240-220-120-220-240z" fill="#fffbf3" stroke="#070707" stroke-width="14"/>
  <g fill="none" stroke="#070707" stroke-width="6" stroke-linecap="round">
    <path d="M560 200c20 30 40 30 60 0"/>
    <path d="M480 240c-30 40-20 70 30 80"/>
    <path d="M720 240c30 30 30 70-20 100"/>
    <path d="M520 360c-40 60 40 120 120 80"/>
    <path d="M640 480c40 40 120-20 100-80"/>
  </g>
  <g fill="#070707">
    <circle cx="520" cy="260" r="12"/>
    <circle cx="560" cy="320" r="12"/>
    <circle cx="640" cy="260" r="12"/>
    <circle cx="700" cy="340" r="12"/>
    <circle cx="620" cy="440" r="12"/>
  </g>
</svg>
