<?xml version="1.0" encoding="UTF-8"?>
<svg xmlns="http://www.w3.org/2000/svg" width="1200" height="800" viewBox="0 0 1200 800">
  <rect width="1200" height="800" fill="#fef6f6"/>
  <rect x="40" y="40" width="1120" height="720" fill="#ffffff" stroke="#111111" stroke-width="12"/>
  <g fill="none" stroke="#ff5c8a" stroke-width="10">
    <path d="M80 120h1040"/>
    <path d="M80 200h1040"/>
    <path d="M80 280h1040"/>
    <path d="M80 360h1040"/>
    <path d="M80 440h1040"/>
    <path d="M80 520h1040"/>
    <path d="M80 600h1040"/>
  </g>
  <g fill="#111111">
    <rect x="100" y="80" width="220" height="60"/>
    <rect x="360" y="80" width="160" height="60"/>
    <rect x="560" y="80" width="140" height="60"/>
    <rect x="720" y="80" width="180" height="60"/>
    <rect x="100" y="140" width="100" height="60"/>
    <rect x="220" y="140" width="80" height="60"/>
    <rect x="320" y="140" width="60" height="60"/>
    <rect x="400" y="140" width="200" height="60"/>
    <rect x="620" y="140" width="140" height="60"/>
    <rect x="780" y="140" width="200" height="60"/>
  </g>
  <g fill="#ff5c8a">
    <rect x="100" y="230" width="220" height="120"/>
    <rect x="360" y="200" width="160" height="200"/>
    <rect x="560" y="240" width="140" height="160"/>
    <rect x="720" y="210" width="180" height="220"/>
    <rect x="920" y="230" width="160" height="120"/>
  </g>
  <g fill="#ffd166">
    <rect x="120" y="370" width="180" height="120"/>
    <rect x="320" y="420" width="160" height="80"/>
    <rect x="520" y="380" width="120" height="120"/>
    <rect x="680" y="360" width="200" height="140"/>
    <rect x="920" y="380" width="160" height="120"/>
  </g>
  <g fill="#06d6a0">
    <rect x="160" y="530" width="120" height="120"/>
    <rect x="320" y="540" width="200" height="100"/>
    <rect x="560" y="520" width="120" height="140"/>
    <rect x="720" y="540" width="200" height="120"/>
    <rect x="940" y="520" width="160" height="140"/>
  </g>
</svg>
