<?xml version="1.0" encoding="UTF-8"?>
<svg xmlns="http://www.w3.org/2000/svg" xmlns:xlink="http://www.w3.org/1999/xlink" width="1200" height="800" viewBox="0 0 1200 800">
  <rect width="1200" height="800" fill="#fffbf3"/>
  <g stroke="#070707" stroke-width="14" fill="none">
    <rect x="60" y="60" width="360" height="320" fill="#ffb5e8"/>
    <rect x="440" y="80" width="320" height="280" fill="#b5deff"/>
    <rect x="800" y="60" width="340" height="260" fill="#ffffff"/>
    <rect x="120" y="420" width="320" height="300" fill="#ffffff"/>
    <rect x="520" y="400" width="320" height="340" fill="#ffffff"/>
    <rect x="880" y="360" width="260" height="360" fill="#ffb5e8"/>
  </g>
  <g font-family="Space Mono, monospace" font-size="36" fill="#070707">
    <text x="120" y="110">Compression</text>
    <text x="460" y="130">Infrastructure</text>
    <text x="840" y="120">Signal</text>
    <text x="140" y="480">Story</text>
    <text x="540" y="460">Weirdness</text>
    <text x="900" y="420">Noise</text>
  </g>
  <image xlink:href="supreme-logo.png" x="120" y="150" width="240" height="120" />
  <image xlink:href="liquid-death-can.jpg" x="460" y="160" width="260" height="160" preserveAspectRatio="xMidYMid slice"/>
  <image xlink:href="audio-waveform.svg" x="840" y="150" width="240" height="150" />
  <image xlink:href="riso-texture.jpg" x="160" y="520" width="240" height="180" preserveAspectRatio="xMidYMid slice"/>
  <image xlink:href="punk-zine.jpg" x="540" y="520" width="240" height="180" preserveAspectRatio="xMidYMid slice"/>
  <image xlink:href="static-noise.svg" x="920" y="460" width="200" height="200" />
  <rect x="40" y="30" width="1120" height="740" fill="none" stroke="#070707" stroke-width="18"/>
</svg>
