<?xml version="1.0" encoding="UTF-8"?>
<svg xmlns="http://www.w3.org/2000/svg" width="1200" height="800" viewBox="0 0 1200 800">
  <rect width="1200" height="800" fill="#fffbf3"/>
  <rect x="60" y="60" width="1080" height="680" fill="none" stroke="#070707" stroke-width="18"/>
  <g font-family="Space Mono, monospace" font-size="32" fill="#070707">
    <text x="200" y="140">Color</text>
    <text x="540" y="140">Artist / Era</text>
    <text x="920" y="140">Signal</text>
  </g>
  <g stroke="#070707" stroke-width="8">
    <rect x="100" y="180" width="160" height="120" fill="#39ff14"/>
    <rect x="100" y="340" width="160" height="120" fill="#ff6fb7"/>
    <rect x="100" y="500" width="160" height="120" fill="#d10000"/>
  </g>
  <g font-family="Inter, sans-serif" font-size="30" fill="#070707">
    <text x="300" y="230">Billie Eilish (early)</text>
    <text x="300" y="390">Tyler — IGOR</text>
    <text x="300" y="550">Kendrick Lamar — DAMN.</text>
  </g>
  <g font-family="Inter, sans-serif" font-size="26" fill="#070707">
    <text x="300" y="270">Neon green + black</text>
    <text x="300" y="430">Hot pink</text>
    <text x="300" y="590">Red / black / white</text>
  </g>
  <g font-family="Inter, sans-serif" font-size="24" fill="#070707">
    <text x="660" y="220">Toxic. Alien. Rebellious.</text>
    <text x="660" y="260">"I'm not your typical pop star."</text>
    <text x="660" y="380">Obsessive. Dramatic. Monochrome love.</text>
    <text x="660" y="420">"This hurts beautifully."</text>
    <text x="660" y="540">Urgency. Violence. Moral duality.</text>
    <text x="660" y="580">"Life or death."</text>
  </g>
  <g stroke="#070707" stroke-width="8" fill="none">
    <path d="M80 170h1040"/>
    <path d="M80 320h1040"/>
    <path d="M80 480h1040"/>
    <path d="M80 640h1040"/>
  </g>
</svg>
