<?xml version="1.0" encoding="UTF-8"?>
<svg xmlns="http://www.w3.org/2000/svg" width="1200" height="800" viewBox="0 0 1200 800">
  <rect width="1200" height="800" fill="#fffbf3"/>
  <rect x="60" y="60" width="1080" height="680" fill="none" stroke="#070707" stroke-width="18"/>
  <g stroke="#070707" stroke-width="12">
    <rect x="120" y="120" width="460" height="560" fill="#0d0d0d"/>
    <rect x="660" y="120" width="420" height="560" fill="#f5e7d7"/>
  </g>
  <g font-family="Space Mono, monospace" font-size="32">
    <text x="140" y="160" fill="#fffbf3">Neon rectangles</text>
    <text x="140" y="200" fill="#fffbf3">B&amp;W photography</text>
    <text x="680" y="160" fill="#070707">Flowing fabrics</text>
    <text x="680" y="200" fill="#070707">Romantic textures</text>
  </g>
  <g fill="#fffbf3">
    <rect x="200" y="240" width="300" height="40"/>
    <rect x="200" y="320" width="300" height="40"/>
    <rect x="200" y="400" width="300" height="40"/>
  </g>
  <g fill="#070707">
    <path d="M740 260c60-80 160-80 220 0v200h-220z" fill="#ffb5e8" stroke="#070707" stroke-width="10"/>
    <path d="M720 520c0 60 40 100 120 100s120-40 120-100z" fill="none" stroke="#070707" stroke-width="10"/>
  </g>
  <g font-family="Inter, sans-serif" font-size="28">
    <text x="140" y="520" fill="#fffbf3">Anxious 路 Urban 路 Minimal</text>
    <text x="680" y="520" fill="#070707">Ethereal 路 Romantic 路 Organic</text>
  </g>
  <g font-family="Space Mono, monospace" font-size="26" fill="#070707">
    <text x="120" y="720">Define your treatment. Shoot, edit, and publish with the same rules.</text>
  </g>
</svg>
