<?xml version="1.0" encoding="UTF-8"?>
<svg xmlns="http://www.w3.org/2000/svg" width="1200" height="800" viewBox="0 0 1200 800">
  <rect width="1200" height="800" fill="#fffbf3"/>
  <rect x="60" y="60" width="1080" height="680" fill="none" stroke="#070707" stroke-width="18"/>
  <g stroke="#070707" stroke-width="10">
    <rect x="120" y="120" width="240" height="200" fill="#ffb5e8"/>
    <rect x="380" y="140" width="200" height="160" fill="#b5deff"/>
    <rect x="620" y="120" width="220" height="220" fill="#fdf0d5"/>
    <rect x="880" y="140" width="220" height="180" fill="#070707"/>
    <rect x="160" y="360" width="220" height="200" fill="#ffffff"/>
    <rect x="420" y="360" width="180" height="240" fill="#fffbf3"/>
    <rect x="640" y="360" width="260" height="220" fill="#ffffff"/>
    <rect x="940" y="360" width="160" height="220" fill="#ffb5e8"/>
  </g>
  <g font-family="Space Mono, monospace" font-size="26">
    <text x="140" y="150" fill="#070707">Color hit</text>
    <text x="400" y="170" fill="#070707">Texture</text>
    <text x="640" y="150" fill="#070707">Typography vibe</text>
    <text x="900" y="170" fill="#fffbf3">Dark anchor</text>
  </g>
  <g fill="#070707">
    <path d="M660 400h140v20H660z"/>
    <path d="M660 440h140v20H660z"/>
    <path d="M660 480h140v20H660z"/>
    <path d="M660 520h140v20H660z"/>
  </g>
  <g font-family="Space Mono, monospace" font-size="24" fill="#070707">
    <text x="120" y="620">Collect 20-30 references.</text>
    <text x="120" y="660">Notice recurring colors, textures, shapes.</text>
    <text x="120" y="700">That's the world you're building.</text>
  </g>
</svg>
