<?xml version="1.0" encoding="UTF-8"?>
<svg xmlns="http://www.w3.org/2000/svg" width="1200" height="800" viewBox="0 0 1200 800">
  <rect width="1200" height="800" fill="#fffbf3"/>
  <rect x="60" y="60" width="1080" height="680" fill="none" stroke="#070707" stroke-width="18"/>
  <g stroke="#070707" stroke-width="12">
    <rect x="140" y="160" width="280" height="480" fill="#ffffff"/>
    <rect x="460" y="160" width="320" height="480" fill="#ffb5e8"/>
    <rect x="820" y="160" width="280" height="480" fill="#b5deff"/>
  </g>
  <g fill="#070707" font-family="Space Mono, monospace" font-size="28">
    <text x="160" y="200">The 1975</text>
    <text x="500" y="200">Tame Impala</text>
    <text x="840" y="200">Teenage Engineering</text>
  </g>
  <g fill="none" stroke="#070707" stroke-width="18">
    <rect x="190" y="280" width="180" height="200"/>
    <path d="M520 280c0-40 120-40 120 0 0 160-120 120-120 240 0 40 120 40 120 0" />
    <rect x="860" y="260" width="200" height="200" rx="24"/>
    <rect x="860" y="480" width="200" height="40" rx="20"/>
    <circle cx="910" cy="460" r="20"/>
    <circle cx="970" cy="460" r="20"/>
    <circle cx="1030" cy="460" r="20"/>
  </g>
  <g font-family="Inter, sans-serif" font-size="24">
    <text x="160" y="520" fill="#070707">Owns the rectangle frame.</text>
    <text x="500" y="520" fill="#070707">Owns the psychedelic vortex.</text>
    <text x="840" y="520" fill="#070707">Owns the playful knob grid.</text>
  </g>
  <g font-family="Space Mono, monospace" font-size="26" fill="#070707">
    <text x="140" y="700">Pick one graphic motif. Repeat it until it's unmistakably yours.</text>
  </g>
</svg>
