<?xml version="1.0" encoding="UTF-8"?>
<svg xmlns="http://www.w3.org/2000/svg" width="1200" height="800" viewBox="0 0 1200 800">
  <rect width="1200" height="800" fill="#070707"/>
  <rect x="120" y="120" width="960" height="560" fill="none" stroke="#fffbf3" stroke-width="16"/>
  <g fill="none" stroke="#fffbf3" stroke-width="4">
    <path d="M180 200c80-40 120 40 200 0s120 40 200 0 120 40 200 0 120 40 200 0"/>
    <path d="M180 230c80-30 120 50 200 10s120 30 200-10 120 50 200 10 120 30 200-10"/>
    <path d="M180 260c80-20 120 60 200 20s120 20 200-20 120 60 200 20 120 20 200-20"/>
    <path d="M180 290c80-10 120 70 200 30s120 10 200-30 120 70 200 30 120 10 200-30"/>
    <path d="M180 320c80 0 120 80 200 40s120 0 200-40 120 80 200 40 120 0 200-40"/>
    <path d="M180 350c80 10 120 90 200 50s120-10 200-50 120 90 200 50 120-10 200-50"/>
    <path d="M180 380c80 20 120 100 200 60s120-20 200-60 120 100 200 60 120-20 200-60"/>
    <path d="M180 410c80 30 120 110 200 70s120-30 200-70 120 110 200 70 120-30 200-70"/>
    <path d="M180 440c80 40 120 120 200 80s120-40 200-80 120 120 200 80 120-40 200-80"/>
    <path d="M180 470c80 50 120 130 200 90s120-50 200-90 120 130 200 90 120-50 200-90"/>
    <path d="M180 500c80 40 120 120 200 80s120-40 200-80 120 120 200 80 120-40 200-80"/>
    <path d="M180 530c80 30 120 110 200 70s120-30 200-70 120 110 200 70 120-30 200-70"/>
    <path d="M180 560c80 20 120 100 200 60s120-20 200-60 120 100 200 60 120-20 200-60"/>
    <path d="M180 590c80 10 120 90 200 50s120-10 200-50 120 90 200 50 120-10 200-50"/>
    <path d="M180 620c80 0 120 80 200 40s120 0 200-40 120 80 200 40 120 0 200-40"/>
  </g>
  <g font-family="Space Mono, monospace" font-size="28" fill="#fffbf3">
    <text x="140" y="720">Simplicity compounds. One graphic element can define an era.</text>
  </g>
</svg>
