<?xml version="1.0" encoding="UTF-8"?>
<svg xmlns="http://www.w3.org/2000/svg" width="1200" height="800" viewBox="0 0 1200 800">
  <rect width="1200" height="800" fill="#fffbf3"/>
  <circle cx="600" cy="400" r="80" fill="#feca57" stroke="#070707" stroke-width="8"/>
  <text x="600" y="410" font-family="Space Mono, monospace" font-size="28" font-weight="700" text-anchor="middle" fill="#070707">BRAND</text>
  
  <g fill="#ff9ff3" stroke="#070707" stroke-width="5">
    <circle cx="300" cy="200" r="50"/><circle cx="500" cy="150" r="50"/>
    <circle cx="700" cy="150" r="50"/><circle cx="900" cy="200" r="50"/>
    <circle cx="950" cy="400" r="50"/><circle cx="900" cy="600" r="50"/>
    <circle cx="700" cy="650" r="50"/><circle cx="500" cy="650" r="50"/>
    <circle cx="300" cy="600" r="50"/><circle cx="250" cy="400" r="50"/>
  </g>
  
  <g stroke="#070707" stroke-width="3" opacity="0.3">
    <line x1="600" y1="400" x2="300" y2="200"/><line x1="600" y1="400" x2="500" y2="150"/>
    <line x1="600" y1="400" x2="700" y2="150"/><line x1="600" y1="400" x2="900" y2="200"/>
    <line x1="600" y1="400" x2="950" y2="400"/><line x1="600" y1="400" x2="900" y2="600"/>
    <line x1="600" y1="400" x2="700" y2="650"/><line x1="600" y1="400" x2="500" y2="650"/>
    <line x1="600" y1="400" x2="300" y2="600"/><line x1="600" y1="400" x2="250" y2="400"/>
  </g>
</svg>
