<?xml version="1.0" encoding="UTF-8"?>
<svg xmlns="http://www.w3.org/2000/svg" width="1200" height="800" viewBox="0 0 1200 800">
  <rect width="1200" height="800" fill="#fffbf3"/>
  <rect x="60" y="60" width="1080" height="680" fill="none" stroke="#070707" stroke-width="18"/>
  <g stroke="#070707" stroke-width="12" fill="#ffffff">
    <rect x="160" y="140" width="320" height="160"/>
    <rect x="160" y="360" width="320" height="160"/>
    <rect x="160" y="580" width="320" height="160"/>
  </g>
  <g stroke="#070707" stroke-width="12" fill="#fffbf3">
    <rect x="520" y="200" width="320" height="160"/>
    <rect x="520" y="440" width="320" height="160"/>
  </g>
  <g stroke="#070707" stroke-width="12" fill="#ffb5e8">
    <rect x="880" y="320" width="220" height="200"/>
  </g>
  <g stroke="#070707" stroke-width="8" marker-end="url(#arrow)">
    <path d="M480 220h40"/>
    <path d="M480 440h40"/>
    <path d="M480 660h40"/>
    <path d="M840 280v40"/>
    <path d="M840 520v40"/>
  </g>
  <defs>
    <marker id="arrow" markerWidth="12" markerHeight="12" refX="6" refY="6" orient="auto">
      <path d="M0 0l12 6-12 6z" fill="#070707"/>
    </marker>
  </defs>
  <g font-family="Space Mono, monospace" font-size="26" fill="#070707">
    <text x="180" y="190">1. Mood Board</text>
    <text x="180" y="230">Collect visual gut-checks.</text>
    <text x="180" y="280">Don't overthink.</text>
    <text x="180" y="410">2. Extract Colors</text>
    <text x="180" y="450">What shades repeat?</text>
    <text x="180" y="490">Pick your 2-3.</text>
    <text x="180" y="630">3. Spot Elements</text>
    <text x="180" y="670">Shapes, textures, motifs.</text>
    <text x="180" y="710">Name them.</text>
    <text x="540" y="250">Fonts match vibe.</text>
    <text x="540" y="290">Sans vs serif vs display.</text>
    <text x="540" y="490">Graphic element test.</text>
    <text x="540" y="530">Does it feel like you?</text>
    <text x="900" y="380">Your Toolkit</text>
    <text x="900" y="420">Palette + Fonts</text>
    <text x="900" y="460">+ Leitmotif</text>
    <text x="900" y="500">= System</text>
  </g>
</svg>
