<?xml version="1.0" encoding="UTF-8"?>
<svg xmlns="http://www.w3.org/2000/svg" width="1200" height="800" viewBox="0 0 1200 800">
  <rect width="1200" height="800" fill="#fffbf3"/>
  <rect x="60" y="60" width="1080" height="680" fill="none" stroke="#070707" stroke-width="18"/>
  <g stroke="#070707" stroke-width="12" fill="none">
    <rect x="160" y="160" width="180" height="180" fill="#ffb5e8"/>
    <rect x="380" y="160" width="420" height="180" fill="#ffffff"/>
    <rect x="160" y="380" width="340" height="240" fill="#ffffff"/>
    <rect x="540" y="380" width="240" height="240" fill="#b5deff"/>
    <rect x="820" y="160" width="220" height="460" fill="#ffffff"/>
  </g>
  <text x="250" y="210" font-family="Space Mono, monospace" font-size="32" text-anchor="middle" fill="#070707">Color</text>
  <text x="590" y="210" font-family="Space Mono, monospace" font-size="32" text-anchor="middle" fill="#070707">Typography</text>
  <text x="330" y="440" font-family="Space Mono, monospace" font-size="32" text-anchor="middle" fill="#070707">Imagery</text>
  <text x="660" y="440" font-family="Space Mono, monospace" font-size="32" text-anchor="middle" fill="#070707">Symbols</text>
  <text x="930" y="210" font-family="Space Mono, monospace" font-size="32" text-anchor="middle" fill="#070707">Shape</text>
  <g font-family="Inter, sans-serif" font-size="48">
    <text x="420" y="250" fill="#070707">Aa</text>
    <text x="520" y="250" fill="#070707" font-weight="700">Bb</text>
    <text x="620" y="250" fill="#070707" font-style="italic">Cc</text>
  </g>
  <g fill="#070707">
    <rect x="190" y="300" width="40" height="12"/>
    <rect x="240" y="300" width="40" height="12"/>
    <rect x="290" y="300" width="40" height="12"/>
  </g>
  <g stroke="#070707" stroke-width="10">
    <circle cx="640" cy="520" r="60" fill="#ffb5e8"/>
    <path d="M580 580l120-120" />
  </g>
  <g fill="#070707">
    <rect x="880" y="240" width="100" height="26"/>
    <rect x="880" y="300" width="100" height="26"/>
    <rect x="880" y="360" width="100" height="26"/>
    <rect x="880" y="420" width="100" height="26"/>
  </g>
  <g fill="#fffbf3" stroke="#070707" stroke-width="12">
    <rect x="220" y="420" width="160" height="160" fill="#070707"/>
    <rect x="590" y="430" width="140" height="120" fill="#070707"/>
    <path d="M930 500l-60 80h120z" fill="#ffb5e8"/>
  </g>
</svg>
